<svg width="926" height="322" viewBox="0 0 926 322" fill="none" xmlns="http://www.w3.org/2000/svg">
<path d="M837.703 0C782.057 0 738.019 14.8561 725.039 75.7347L719.471 102.696H800.606L806.174 76.2063C808.488 64.5729 814.527 53.9221 827.507 53.9221C837.703 53.9221 842.801 61.3502 840.487 71.097L835.389 93.3812C832.605 105.918 823.782 108.709 812.684 112.443C795.077 118.495 776.999 124.076 758.921 130.089C722.294 142.626 701.432 153.788 693.08 193.286L690.256 206.531C684.099 187.391 670.335 177.802 649.512 172.378C678.727 164.007 699.119 143.098 699.119 111.067C699.119 45.5508 610.415 45.5508 563.122 45.5508H417.283L437.792 6.05248H355.285L319.129 92.0056L301.521 137.556H301.051L302.423 92.0056L301.953 6.05248H218.504L222.229 45.5508H150.663L83.4488 131.032V45.5508H0V276.449H83.4488V192.815L151.133 276.449H230.504L222.229 315.948H302.423L320.501 231.842L385.245 107.176V276.449H484.928V203.505H551.24C577.2 203.505 591.121 207.239 594.337 235.104L597.121 257.388C598.062 263.912 599.435 270.397 601.749 276.449H677.903C678.374 303.567 692.923 322 731.078 322C757.509 322 778.842 313.629 795.038 292.72C793.195 300.62 792.253 308.519 791.312 315.948H874.761C877.545 292.72 881.702 270.868 886.368 248.113L922.995 77.1495C937.347 10.6901 898.878 0.0393018 837.703 0.0393018V0ZM159.486 157.05L225.092 75.6954L239.837 231.842L235.641 251.807L159.486 157.011V157.05ZM567.004 143.098H484.967V106.862H567.004C579.984 106.862 596.69 108.237 596.69 124.98C596.69 141.722 579.553 143.098 567.004 143.098ZM804.841 240.213C802.528 251.846 794.175 264.855 781.665 264.855C769.156 264.855 768.215 253.222 770.058 243.947L783.508 182.636C784.881 176.583 786.293 173.36 793.234 170.098L822.919 156.146L804.841 240.252V240.213Z" fill="#BBEF44"/>
</svg>
